<svg width="500" height="500" viewBox="0 0 500 500" fill="none" xmlns="http://www.w3.org/2000/svg">
<rect width="500" height="500" fill="#0C0C0C"/>
<path d="M199.308 246.001C184.869 246.001 171.818 242.761 160.155 236.282C148.492 229.617 139.329 220.361 132.664 208.514C126 196.481 122.668 182.597 122.668 166.862C122.668 151.311 126.093 137.52 132.942 125.487C139.792 113.454 149.14 104.198 160.988 97.7188C172.836 91.2396 186.072 88 200.696 88C215.321 88 228.557 91.2396 240.405 97.7188C252.253 104.198 261.601 113.454 268.451 125.487C275.3 137.52 278.725 151.311 278.725 166.862C278.725 182.412 275.208 196.203 268.173 208.236C261.138 220.269 251.512 229.617 239.294 236.282C227.261 242.761 213.933 246.001 199.308 246.001ZM199.308 218.51C207.453 218.51 215.043 216.566 222.078 212.679C229.298 208.791 235.129 202.96 239.572 195.185C244.015 187.41 246.236 177.969 246.236 166.862C246.236 155.754 244.107 146.406 239.849 138.816C235.592 131.041 229.946 125.209 222.911 121.322C215.876 117.434 208.286 115.49 200.141 115.49C191.996 115.49 184.406 117.434 177.371 121.322C170.522 125.209 165.061 131.041 160.988 138.816C156.915 146.406 154.879 155.754 154.879 166.862C154.879 183.337 159.044 196.111 167.375 205.182C175.89 214.067 186.535 218.51 199.308 218.51Z" fill="#CCCCCC"/>
<path d="M348.029 88C359.877 88 370.337 90.4066 379.407 95.2197C388.664 99.8477 395.883 105.679 401.067 112.714V90.4991H433V246.001C433 260.07 430.038 272.566 424.114 283.488C418.19 294.595 409.582 303.296 398.29 309.59C387.183 315.884 373.854 319.031 358.304 319.031C337.57 319.031 332.136 315.501 318.437 305.69C304.738 296.064 317.143 283.302 315.292 266.641L314.708 264.883C317.114 272.843 322.205 279.23 329.98 284.043C337.94 289.041 347.382 291.54 358.304 291.54C371.077 291.54 381.351 287.653 389.126 279.878C397.087 272.103 401.067 260.81 401.067 246.001V220.454C395.698 227.674 388.386 233.783 379.13 238.781C370.059 243.594 359.692 246.001 348.029 246.001C334.701 246.001 322.483 242.669 311.376 236.004C300.453 229.155 291.753 219.714 285.273 207.681C278.979 195.463 275.832 181.671 275.832 166.306C275.832 150.941 278.979 137.335 285.273 125.487C291.753 113.639 300.453 104.476 311.376 97.9965C322.483 91.3322 334.701 88 348.029 88ZM401.067 166.862C401.067 156.31 398.845 147.146 394.402 139.371C390.144 131.596 384.498 125.672 377.464 121.599C370.429 117.527 362.839 115.49 354.694 115.49C346.549 115.49 338.959 117.527 331.924 121.599C324.889 125.487 319.151 131.318 314.708 139.093C310.45 146.683 308.321 155.754 308.321 166.306C308.321 176.858 310.45 186.114 314.708 194.074C319.151 202.034 324.889 208.143 331.924 212.401C339.144 216.474 346.734 218.51 354.694 218.51C362.839 218.51 370.429 216.474 377.464 212.401C384.498 208.329 390.144 202.405 394.402 194.63C398.845 186.669 401.067 177.413 401.067 166.862Z" fill="#CCCCCC"/>
<path d="M109.64 367.486C95.2006 367.486 82.1496 364.247 70.487 357.767C58.8244 351.103 49.6609 341.847 42.9965 329.999C36.3322 317.966 33 304.082 33 288.347C33 272.797 36.4247 259.005 43.2742 246.973C50.1237 234.94 59.4723 225.684 71.32 219.204C83.1678 212.725 96.4039 209.486 111.028 209.486C125.653 209.486 138.889 212.725 150.737 219.204C162.585 225.684 171.933 234.94 178.783 246.973C185.632 259.005 189.057 272.797 189.057 288.347C189.057 303.897 185.54 317.689 178.505 329.722C171.47 341.754 161.844 351.103 149.626 357.767C137.593 364.247 124.265 367.486 109.64 367.486ZM109.64 339.996C117.785 339.996 125.375 338.052 132.41 334.165C139.63 330.277 145.461 324.446 149.904 316.671C154.347 308.896 156.568 299.454 156.568 288.347C156.568 277.24 154.439 267.891 150.182 260.301C145.924 252.526 140.278 246.695 133.243 242.807C126.208 238.92 118.618 236.976 110.473 236.976C102.328 236.976 94.7378 238.92 87.7032 242.807C80.8538 246.695 75.3927 252.526 71.32 260.301C67.2474 267.891 65.211 277.24 65.211 288.347C65.211 304.823 69.3763 317.596 77.7067 326.667C86.2223 335.553 96.8667 339.996 109.64 339.996Z" fill="#CCCCCC"/>
<path d="M258.361 209.486C270.209 209.486 280.669 211.892 289.739 216.705C298.996 221.333 306.215 227.165 311.399 234.199V211.985L343.332 219.482V367.486C343.332 381.555 340.37 394.051 334.446 404.973C328.522 416.081 319.914 424.781 308.622 431.075C297.515 437.369 284.186 440.516 268.636 440.516C247.902 440.516 230.686 435.611 216.987 425.799C203.288 416.173 195.513 403.03 193.662 386.369H225.04C227.446 394.329 232.537 400.715 240.312 405.529C248.272 410.527 257.714 413.026 268.636 413.026C281.409 413.026 291.683 409.139 299.458 401.363C307.419 393.588 311.399 382.296 311.399 367.486V341.94C306.03 349.159 298.718 355.268 289.462 360.267C280.391 365.08 270.024 367.486 258.361 367.486C245.033 367.486 232.815 364.154 221.708 357.49C210.785 350.64 202.085 341.199 195.606 329.166C189.311 316.948 186.164 303.157 186.164 287.792C186.164 272.427 189.311 258.82 195.606 246.973C202.085 235.125 210.785 225.961 221.708 219.482C232.815 212.818 245.033 209.486 258.361 209.486ZM311.399 288.347C311.399 277.795 309.177 268.632 304.734 260.857C300.476 253.082 294.83 247.158 287.796 243.085C280.761 239.012 273.171 236.976 265.026 236.976C256.881 236.976 249.291 239.012 242.256 243.085C235.221 246.973 229.483 252.804 225.04 260.579C220.782 268.169 218.653 277.24 218.653 287.792C218.653 298.344 220.782 307.6 225.04 315.56C229.483 323.52 235.221 329.629 242.256 333.887C249.476 337.96 257.066 339.996 265.026 339.996C273.171 339.996 280.761 337.96 287.796 333.887C294.83 329.814 300.476 323.89 304.734 316.115C309.177 308.155 311.399 298.899 311.399 288.347Z" fill="#CCCCCC"/>
</svg>
